# xmcd
#
# Track frame offsets: 
#        150
#        19330
#        34807
#        53717
#        70535
#        88200
#        111502
#        130192
#        150620
#        178234
#
# Disc length: 2642 seconds
#
# Revision: 5
# Processed by: cddbd v1.5.2PL0 Copyright (c) Steve Scherf et al.
# Submitted via: ExactAudioCopy v1.0b2
#
DISCID=870a500a
DTITLE=박기영 - Promise
DYEAR=1999
DGENRE=K-Pop
TTITLE0=우리 사이 (작사:박기영 작곡:박기영 편곡:박기영)
TTITLE1=시작 (작사:오석준 작곡:오석준, 신동우, 오석준 편곡:손무현, 오석준)
TTITLE2=마지막 사랑 (작사:조규만 작곡:조규만 편곡:조규만)
TTITLE3=너에게 (작사:오석준 작곡:손무현 편곡:손무현)
TTITLE4=사막의 문 (작사:박기영 작곡:박기영 편곡:박기영)
TTITLE5=With Me (작사:이희승 작곡:김종서 편곡:김종서)
TTITLE6=약속 (작사:오석준 작곡:손무현 편곡:손무현)
TTITLE7=세번째 사랑 (작사:오석준 작곡:오석준 편곡:손무현, 오석준)
TTITLE8=Millennium (작사:박기영 작곡:박기영 편곡:박기영)
TTITLE9=내가 생각했던 세상은 (작사:박기영 작곡:박기영, 이상준 편곡:이상준)
EXTD=
EXTT0=
EXTT1=
EXTT2=
EXTT3=
EXTT4=
EXTT5=
EXTT6=
EXTT7=
EXTT8=
EXTT9=
PLAYORDER=
